<svg xmlns="http://www.w3.org/2000/svg" viewBox="0 0 400 400" width="400" height="400">
  <path d="M70.5,260.6L72.2,260.7L75.2,257.6L75.1,254.4L77.1,251.2L76.1,247.3L77.3,245.0L81.8,243.5L89.3,245.9L91.8,236.2L90.6,236.2L90.1,238.3L83.5,236.6L81.1,242.6L78.4,243.2L79.7,238.4L80.6,239.0L80.2,236.2L74.8,237.6L73.5,235.1L65.0,232.4L63.8,229.2L61.1,227.4L32.3,237.7L33.8,241.0L47.7,236.6L49.3,241.8L45.1,243.3L41.5,246.6L42.1,248.2L45.9,248.4L47.2,251.9L44.3,256.6L44.9,258.2L59.7,257.2L70.5,260.6 M252.2,260.5L248.3,262.7L250.1,264.8L245.4,267.0L244.9,264.5L248.4,263.4L244.8,264.5L243.3,266.8L243.8,265.5L239.5,266.5L239.2,264.8L236.4,266.7L231.5,265.4L229.1,263.3L222.9,262.4L224.7,261.7L223.3,261.2L224.6,262.3L219.2,260.8L209.6,261.5L211.7,262.8L210.0,262.5L206.7,265.7L200.6,267.7L198.9,272.6L203.3,276.1L209.8,287.1L210.0,289.6L212.7,292.1L217.9,292.6L218.2,296.0L225.6,302.1L230.3,304.3L231.1,306.9L230.2,307.1L228.5,303.8L229.6,301.6L231.5,301.4L229.6,301.4L228.9,294.9L218.9,295.1L218.1,292.7L232.2,294.7L231.8,296.5L233.2,298.9L231.1,300.3L232.4,300.0L234.3,301.8L233.6,303.9L237.4,306.4L242.6,295.4L248.2,295.2L248.9,296.7L247.8,298.8L249.1,300.8L251.0,301.8L253.1,300.5L255.9,302.9L255.7,306.2L254.5,307.0L255.3,310.1L252.4,310.5L257.7,313.1L258.4,314.8L258.3,316.0L255.2,318.0L255.1,320.9L257.1,320.8L258.6,318.9L260.3,319.9L264.3,314.9L266.4,316.5L267.4,319.5L265.3,322.1L264.6,328.7L264.9,331.5L266.8,333.3L272.2,332.3L273.8,330.6L269.8,322.2L272.9,319.2L272.5,317.1L267.3,314.5L266.9,312.5L273.1,304.1L275.9,306.5L278.0,305.1L277.1,300.5L274.1,299.9L273.3,295.1L272.1,295.1L273.8,293.4L275.2,297.7L278.6,297.7L280.4,299.4L280.6,297.8L281.3,298.4L280.5,301.9L282.7,309.5L281.8,311.8L283.6,313.5L284.1,312.1L285.8,312.5L285.5,314.4L283.2,314.7L286.2,315.2L286.6,322.7L289.8,323.7L293.4,322.6L295.4,324.2L296.0,322.6L299.2,323.6L299.6,322.3L297.6,321.7L297.8,320.5L294.9,320.2L295.8,319.1L295.4,314.0L292.0,308.0L293.6,306.7L296.2,307.0L293.3,305.2L294.3,302.0L292.0,299.7L292.0,297.2L289.5,294.8L292.9,291.7L294.9,291.9L294.4,290.1L296.4,286.4L295.4,284.1L296.7,282.1L291.0,276.8L290.1,277.7L288.4,273.4L288.8,276.6L287.1,277.5L286.1,276.3L287.9,274.2L285.6,269.5L281.1,265.4L276.5,263.8L280.6,265.6L275.3,266.4L274.4,265.5L275.2,264.5L272.5,262.5L257.9,258.5L257.6,257.6L257.7,258.6L256.8,257.9L257.0,258.7L252.2,260.5 M373.3,279.0L373.3,279.0 M366.9,106.4L368.4,106.2L371.5,100.1L366.1,100.5L366.2,102.3L364.8,103.0L366.9,106.4 M198.3,265.5L196.4,263.9L195.0,266.1L198.3,265.5 M305.8,65.4L306.5,65.0L304.2,62.9L305.5,65.9 M283.0,347.6L283.0,347.6 M256.8,135.2L255.9,135.4L259.2,133.5L265.1,138.4L263.5,135.8L266.3,135.7L266.9,137.5L263.7,141.2L268.2,141.9L268.2,143.1L269.1,141.1L274.9,141.7L279.7,138.2L281.0,135.3L278.0,134.9L275.7,138.9L271.7,140.7L267.8,138.9L268.7,136.3L263.3,133.9L263.4,128.2L267.0,123.1L269.7,125.5L269.6,127.5L273.4,127.1L275.3,124.6L276.1,125.8L278.8,124.1L280.2,126.3L279.1,127.1L281.3,127.5L290.2,137.1L289.7,141.1L292.8,138.4L296.6,138.0L300.8,131.8L309.1,127.0L305.8,128.0L308.0,125.1L312.6,125.5L321.0,121.8L322.6,119.3L331.5,116.0L333.0,113.8L331.0,113.4L334.4,110.9L335.1,112.8L337.2,111.4L344.5,102.8L351.9,97.5L350.0,94.7L345.2,98.8L333.7,101.3L330.2,103.1L329.5,104.7L326.3,101.2L325.5,102.9L324.4,102.4L324.4,99.7L321.7,100.3L321.8,96.9L321.3,98.1L320.8,96.5L319.4,97.1L320.6,100.0L318.4,98.3L317.0,98.9L318.0,96.3L315.7,97.2L313.9,95.9L315.5,96.5L316.8,95.4L315.4,94.6L315.0,95.5L311.3,95.4L311.3,96.6L309.7,95.7L309.6,97.3L307.8,96.8L306.5,97.9L307.5,96.2L309.1,96.6L308.2,95.2L309.5,94.7L309.3,93.2L306.6,93.6L308.3,91.7L307.5,90.2L310.2,91.0L311.6,93.2L312.5,89.6L314.0,89.5L313.5,88.0L317.1,84.5L314.5,84.7L312.3,86.8L310.9,86.0L313.9,81.7L308.7,81.0L309.7,83.1L308.2,84.2L304.3,82.7L300.9,84.7L299.8,83.9L301.6,78.8L304.3,77.6L303.8,75.4L301.7,75.7L300.1,77.8L301.2,74.4L300.4,72.7L296.8,74.8L296.0,73.9L298.1,70.1L296.3,69.7L299.2,66.4L297.7,67.3L295.5,66.1L294.0,69.6L294.3,67.4L292.1,67.3L292.7,69.0L291.3,69.7L289.7,68.3L290.0,66.1L288.3,65.9L287.5,68.8L286.7,65.4L282.2,78.0L280.2,79.4L277.5,77.8L276.9,80.5L274.3,81.8L272.0,80.2L272.2,82.2L271.3,81.8L270.2,84.4L268.0,85.2L268.4,82.7L263.4,85.0L263.6,76.6L265.6,77.6L267.4,76.0L268.0,72.9L271.0,70.6L270.2,70.0L273.8,69.7L274.6,70.9L276.5,70.1L286.1,58.3L288.9,60.5L294.0,56.0L291.5,53.2L291.4,49.9L294.5,53.5L302.9,46.1L309.1,53.3L318.8,53.0L308.1,40.5L306.6,41.8L305.4,40.3L303.7,40.7L306.3,39.2L304.7,38.9L303.3,36.2L305.4,37.3L306.3,40.0L307.2,38.5 M298.6,69.1L297.5,69.2L299.4,69.5L300.3,68.3L298.6,69.1 M251.4,310.7L252.0,310.4 M387.0,177.5L386.1,177.0L387.0,177.5 M361.1,288.9L361.1,287.7L363.2,288.0L362.2,283.3L362.2,285.9L359.9,285.3L361.1,288.9 M296.4,361.8L299.6,359.9L298.9,358.8L302.1,355.2L303.2,355.5L302.9,357.0L308.8,356.7L306.8,351.8L307.6,349.3L306.9,347.1L303.1,343.2L301.7,343.6L301.0,345.9L295.7,347.7L291.8,354.2L292.5,355.8L294.9,355.3L293.3,357.6L297.6,359.0L295.3,362.2L296.4,361.8 M348.2,73.4L348.3,71.6L347.1,71.5L348.2,73.4 M302.1,64.0L302.1,64.0 M372.5,237.3L372.2,237.6 M357.9,281.8L357.9,281.8 M348.3,117.7L348.3,120.9L348.3,117.7 M199.6,264.4L198.7,264.2L199.6,264.4 M390.7,206.5L389.7,205.0L390.7,206.5 M322.8,200.1L324.2,200.4L322.8,200.1 M272.7,133.1L272.8,130.8L271.1,132.7L272.7,133.1 M359.2,242.6L363.9,240.7L363.7,236.7L365.9,235.9L366.7,234.1L364.9,233.8L363.6,236.0L361.8,234.7L360.5,235.9L358.7,240.3L360.2,244.2L359.6,242.6 M327.3,200.4L327.3,200.4 M160.3,221.5L164.1,219.4L160.9,215.8L163.2,213.9L162.1,213.5L163.5,211.7L157.5,212.0L157.7,215.5L155.6,217.1L158.2,217.5L157.6,220.0L160.3,221.5 M317.9,83.6L317.9,83.6 M348.4,122.5L348.6,121.3L348.4,122.5 M350.2,228.0L351.6,227.6L350.7,225.7L349.4,227.3L350.2,228.0 M332.1,194.8L332.1,194.8 M341.4,253.3L339.8,253.0L341.4,253.3 M309.3,79.1L310.8,78.1L309.0,77.0L309.3,79.1 M317.4,196.7L315.9,198.0L318.2,196.4 M372.0,124.4L373.0,120.9L370.8,119.1L371.2,115.0L368.0,113.5L363.6,117.7L365.2,118.5L366.7,124.4L369.1,123.3L367.9,124.5L367.2,128.7L369.7,129.1L372.0,124.4 M294.8,304.6L294.7,305.4 M336.7,273.1L337.5,272.1L336.8,270.3L335.1,271.7L336.7,273.1 M375.5,280.3L374.7,279.1L375.5,280.3 M271.8,150.2L272.7,147.6L271.8,150.2 M345.4,236.8L345.4,236.8 M292.0,358.9L292.7,357.8L291.4,359.1 M11.8,331.9L12.4,330.7L16.6,330.9L15.9,328.3L18.8,326.3L22.0,325.5L23.8,326.2L23.7,327.4L26.0,326.7L28.6,321.7L32.3,320.0L34.2,320.6L33.3,318.0L36.7,314.2L39.6,312.9L41.4,313.9L43.5,311.3L47.2,312.3L46.3,315.1L47.6,317.9L54.5,323.2L57.2,324.0L59.6,320.2L64.6,323.4L69.8,321.2L70.1,317.1L67.2,314.7L64.1,316.0L61.8,315.2L61.6,313.1L63.4,312.6L65.0,309.2L68.0,310.7L71.5,309.9L73.7,307.4L84.8,303.2L87.8,303.5L89.0,305.0L99.1,298.4L105.2,301.0L104.0,297.1L105.8,299.8L105.6,302.1L104.1,303.2L102.5,307.4L107.0,311.8L104.5,315.8L108.3,317.2L108.7,319.7L111.2,319.6L110.9,317.9L116.2,315.1L117.7,315.2L118.5,317.7L121.0,317.6L121.5,315.1L125.4,313.8L125.0,312.4L126.4,310.4L130.1,309.5L130.5,307.0L132.4,305.8L126.4,304.5L125.4,302.1L121.7,303.8L117.3,298.1L116.1,299.0L113.9,298.2L113.7,296.8L117.9,294.7L118.8,292.3L122.0,292.0L126.5,289.2L123.8,286.6L122.5,283.0L119.0,281.9L119.9,279.8L116.9,278.7L117.4,276.4L120.0,274.3L127.8,279.7L134.4,279.3L133.1,278.3L134.0,277.1L133.1,271.7L134.7,269.7L134.0,265.2L131.4,263.7L131.5,261.4L132.8,260.6L131.4,259.0L132.1,258.1L134.6,260.0L137.4,259.9L135.3,254.2L132.0,256.9L129.1,256.0L129.0,253.5L132.5,252.7L129.0,250.7L130.1,246.3L135.9,246.1L138.6,243.9L142.3,248.0L145.9,249.2L151.2,248.3L156.4,245.6L154.9,239.0L155.6,237.5L157.2,238.1L155.6,235.9L157.8,231.5L156.5,230.6L156.1,228.2L158.5,226.9L155.5,221.1L149.5,218.1L149.0,221.2L141.1,226.6L139.3,226.4L134.6,233.3L132.4,234.2L135.0,229.4L132.9,229.6L132.0,228.3L129.7,231.7L125.8,232.7L125.9,234.6L119.4,238.4L116.1,238.7L115.8,241.2L112.4,244.6L108.4,245.4L97.6,253.2L95.1,253.9L93.3,250.7L89.0,248.6L87.8,249.8L88.6,249.1L89.0,250.3L87.0,250.6L79.1,258.0L76.3,258.4L74.0,260.7L72.4,264.7L73.6,264.3L71.3,266.3L72.1,269.1L71.1,266.9L68.9,268.0L68.7,266.4L65.6,264.2L66.1,261.8L63.7,260.1L58.4,259.2L55.2,261.2L51.9,258.7L49.6,261.7L48.2,260.0L46.3,259.8L44.6,262.8L44.4,266.8L39.0,270.4L38.5,272.7L40.1,275.2L39.5,277.0L36.5,274.2L32.3,276.8L28.6,277.2L25.2,282.6L25.9,281.8 M134.9,228.8L133.4,226.4L134.9,228.8 M334.6,71.9L334.6,71.9 M350.2,117.8L350.3,118.9L350.2,117.8 M327.6,236.4L328.0,234.5L322.2,229.9L321.6,233.0L322.9,235.5L327.4,237.4 M329.4,341.0L328.2,342.9L330.2,340.9L330.9,337.1L330.0,341.2 M146.8,262.9L149.9,260.4L147.4,259.6L142.5,261.8L144.6,265.5L144.4,267.9L148.7,268.6L151.1,265.6L149.2,263.4L146.5,265.0L145.7,263.7L146.8,262.9 M340.4,234.3L340.4,234.3 M339.9,245.4L339.3,244.1L339.9,245.4 M317.3,89.0L319.0,88.4L316.2,87.5L317.3,89.0 M135.6,317.7L133.4,318.9L134.5,320.3L136.7,320.2L138.0,323.0L137.1,324.5L133.9,325.1L132.7,328.5L130.0,328.1L130.8,330.3L133.2,330.6L133.0,331.9L140.9,326.3L143.3,328.6L143.7,326.9L146.7,324.5L144.5,322.3L142.6,323.5L140.6,322.7L138.5,320.1L139.3,317.1L143.0,315.9L140.6,315.0L142.8,312.8L142.1,311.2L136.7,312.6L135.6,317.7 M303.8,74.5L303.8,74.5 M376.3,115.8L375.3,115.4L377.3,116.5L376.4,116.0 M336.1,186.9L335.6,185.9L336.1,186.9 M347.6,120.5L347.6,120.5 M307.4,78.7L307.4,78.7 M200.9,336.1L197.9,338.2L197.3,340.3L200.4,343.8L203.6,342.9L205.3,345.0L206.6,344.9L209.8,341.3L213.4,345.5L213.4,341.6L211.3,338.4L212.5,335.0L213.9,337.6L221.7,342.9L219.4,336.5L217.7,335.8L218.0,333.7L216.7,331.7L215.6,332.1L215.2,330.3L217.8,330.3L217.9,329.1L220.0,328.7L222.2,324.5L227.5,325.7L229.6,322.6L228.2,321.0L224.4,321.7L223.7,319.9L222.6,319.9L218.7,322.9L215.2,321.9L211.4,322.9L209.4,324.2L208.4,327.2L206.0,325.0L206.3,321.6L211.6,318.9L213.2,314.7L211.0,312.5L208.8,315.3L206.5,313.8L205.2,311.9L206.1,311.0L205.6,309.2L201.8,306.4L203.4,300.5L200.1,297.9L199.3,299.7L191.6,303.1L194.6,305.5L193.4,309.1L195.2,308.6L195.4,309.7L190.3,312.6L190.6,314.2L190.0,312.3L189.2,314.7L190.3,316.5L189.8,320.1L191.0,320.3L193.0,320.2L193.1,318.2L190.9,316.5L194.4,316.5L194.6,318.3L195.7,318.6L196.9,317.8L196.9,313.7L201.4,315.1L202.7,320.7L201.3,323.7L203.2,325.7L200.9,336.1 M322.7,297.7L323.8,297.1L323.9,292.9L325.3,293.0L325.5,291.5L323.6,289.2L323.6,287.6L325.0,287.6L323.4,284.6L318.7,288.2L315.1,288.4L313.0,291.3L312.8,294.5L318.1,297.4L317.3,299.7L318.2,300.6L319.5,299.6L318.8,297.8L319.8,296.6L322.7,297.4 M323.4,68.6L323.4,68.6 M152.0,285.8L156.2,283.6L157.3,281.6L156.5,280.2L151.0,282.1L150.5,284.4L152.0,285.8 M329.2,102.5L330.2,102.1L329.2,102.5 M161.6,224.3L162.4,223.6L160.9,223.0L162.2,224.3 M245.7,304.6L248.7,303.8L249.9,302.1L245.1,301.5L244.5,302.8L245.7,304.6 M288.0,344.9L288.8,342.6L292.3,344.3L295.9,342.0L296.6,339.1L295.5,336.5L287.5,337.7L288.0,344.9 M303.0,71.9L302.3,71.4L303.0,71.9 M159.1,262.8L160.1,262.0L157.7,261.7L158.8,263.2 M306.7,154.4L307.6,153.5L306.7,154.4 M246.6,318.5L249.0,317.4L248.6,316.2L245.7,315.9L246.8,318.6 M375.8,245.4L374.2,243.5L374.9,242.3L374.0,240.0L372.0,238.5L372.7,237.9L369.0,238.7L369.0,241.7L370.3,244.1L372.1,244.7L371.7,247.4L372.9,248.5L373.4,246.2L376.2,245.0L374.3,243.1 M373.6,226.5L373.0,224.0L371.4,225.4L369.0,224.6L368.7,231.1L372.7,232.2L372.2,231.1L373.9,230.8L372.3,228.4L373.7,226.5 M273.6,323.9L272.3,323.3L273.6,323.9 M308.0,83.0L308.0,83.0 M211.0,311.4L212.6,311.1L212.4,309.2L210.6,309.9L211.0,311.4 M299.2,64.8L300.6,64.4L299.2,64.8 M332.9,83.5L333.7,89.0L332.1,92.2L330.7,92.4L331.8,93.0L330.9,94.1L329.4,93.0L330.6,95.1L328.5,95.4L327.7,93.1L326.4,94.7L322.8,93.2L323.1,95.0L325.1,96.2L323.6,97.9L325.4,98.1L325.2,99.7L328.8,98.9L330.6,95.9L333.8,97.3L335.0,95.1L337.8,94.5L341.6,90.9L339.8,89.0L338.3,89.2L338.9,88.1L336.5,85.0L332.9,83.5 M297.9,309.9L298.0,309.0L295.7,309.1L297.9,309.9 M372.5,217.9L372.5,217.9 M134.3,276.9L134.0,277.2 M361.9,275.8L360.6,275.4L358.6,278.1L358.7,281.4L360.5,280.8L360.7,278.5L361.9,277.8L361.0,276.8L362.3,276.4L361.6,274.6L362.2,275.5 M312.6,78.9L313.5,79.0L312.6,78.9 M213.9,296.1L216.2,295.9L213.9,296.1 M322.2,70.3L322.3,68.2L323.7,66.9L325.7,66.6L328.6,69.7L332.4,66.6L334.6,67.8L338.5,65.7L322.4,64.8L321.7,63.5L322.9,62.3L320.8,61.7L318.6,63.0L320.8,66.5L319.7,69.2L319.7,67.1L317.1,67.9L323.0,74.1L320.9,74.4L320.9,73.0L317.9,74.4L317.0,78.8L318.6,77.5L322.3,77.0L322.6,77.9L325.8,75.2L328.2,77.1L326.1,78.7L329.6,79.3L330.3,75.8L328.2,76.3L324.9,73.1L324.7,70.8L322.2,70.3 M327.1,92.7L326.5,92.0L327.1,92.7 M327.1,196.9L329.7,198.1L331.0,195.8L330.5,193.6L327.1,193.3L327.1,196.9 M330.3,75.3L333.4,72.5L332.0,71.7L330.5,72.5L330.3,75.3 M272.2,71.0L273.1,70.2L272.2,71.0 M359.6,288.6L358.2,287.4L359.6,288.6 M362.4,222.0L362.4,222.0 M374.7,220.8L375.2,219.3L374.7,220.8 M270.4,72.4L271.1,71.6L270.4,72.4 M315.4,186.3L315.4,186.3 M312.3,280.2L312.3,280.2 M307.8,160.1L307.8,158.5L307.8,160.1 M319.0,197.1L320.1,196.8L319.0,197.1 M342.5,233.0L346.2,234.1L346.4,232.7L347.7,232.6L348.0,230.1L344.8,223.2L342.0,222.3L338.5,223.2L337.5,225.0L340.2,230.2L339.4,231.0L340.5,233.7L343.1,233.6L342.4,233.4 M319.0,195.1L319.4,194.1L317.9,193.3L319.0,195.1 M386.0,176.6L386.9,175.8L386.0,175.5L386.0,176.6L385.6,175.6 M326.1,193.9L326.1,193.9 M335.1,253.1L335.1,253.1 M339.6,85.9L341.0,84.8L340.3,80.0L341.6,77.9L340.5,75.0L339.3,75.5L339.6,79.5L337.4,81.7L333.2,76.9L332.0,78.5L332.2,81.5L339.6,85.9 M95.0,232.0L96.6,230.1L94.5,228.2L93.7,231.0L95.0,232.0 M5.7,47.5L3.9,48.7L6.8,53.1L9.5,51.5L6.9,53.2L9.2,57.5L13.2,61.3L19.2,84.6L26.0,81.1L21.0,63.3L22.6,59.4L23.3,64.8L27.3,70.5L28.9,70.0L29.5,71.2L32.1,68.3L36.6,70.5L38.4,69.6L37.0,70.9L38.8,77.5L36.8,82.2L22.1,92.4L24.1,101.7L22.8,103.8L28.8,122.6L34.9,135.3L35.9,134.9L35.1,125.8L32.6,122.0L34.0,119.0L38.7,121.3L37.8,123.1L36.5,123.1L36.8,127.0L39.4,127.8L40.1,129.5L40.2,131.5L39.0,132.2L39.6,135.1L38.2,137.0L39.4,143.6L45.8,135.1L44.5,128.5L46.4,127.4L47.7,129.1L51.4,126.2L49.4,123.7L51.0,122.0L55.7,125.9L55.8,123.3L57.4,123.3L55.2,121.5L56.0,118.9L57.4,119.7L56.6,117.1L62.4,116.4L61.1,116.0L60.6,112.8L65.9,114.3L65.8,115.6L63.7,115.2L63.6,116.7L70.3,118.4L71.5,115.1L74.3,115.9L75.8,114.4L75.7,112.2L78.8,112.1L81.8,109.9L81.4,105.2L83.0,101.1L82.1,97.8L84.0,97.1L82.1,93.8L83.6,91.6L82.6,90.4L83.7,90.7L84.1,88.9L83.4,86.4L89.3,87.4L99.3,86.7L102.1,87.8L111.6,85.1L114.0,86.0L117.1,84.3L116.9,82.4L119.8,82.3L133.2,88.6L136.8,91.9L137.1,94.3L140.7,95.5L139.5,97.7L141.4,98.0L141.3,96.5L142.8,96.2L141.0,100.2L141.2,99.0L137.7,98.6L133.7,100.6L138.3,101.5L133.5,101.7L137.5,103.3L139.1,106.1L135.5,110.3L132.7,111.2L134.2,111.5L134.8,114.6L132.6,117.2L128.6,116.9L127.8,112.8L124.9,113.5L120.1,111.3L116.3,111.5L113.0,120.4L104.6,127.2L105.4,127.7L101.7,135.4L91.0,140.8L88.0,141.0L85.8,143.4L85.7,145.7L81.4,148.9L80.7,153.5L75.1,158.2L76.1,159.5L75.5,163.7L74.4,158.6L69.1,160.4L67.3,163.6L67.8,161.1L64.2,160.8L58.3,162.8L58.2,164.6L51.3,171.1L49.6,174.2L55.0,175.3L55.5,176.9L57.3,176.2L59.2,179.4L57.8,181.4L58.9,183.9L61.4,185.3L62.8,188.0L62.2,193.5L58.4,196.7L60.2,198.3L59.0,199.0L61.6,201.6L59.3,199.1L60.3,198.5L64.5,201.9L62.8,201.5L74.4,209.1L72.9,207.5L74.3,204.0L75.3,204.4L74.6,205.9L76.5,206.8L77.1,205.2L78.1,205.6L77.4,207.1L79.3,207.9L79.9,206.4L80.9,206.8L80.2,208.3L81.5,208.8L82.4,207.1L85.3,211.4L82.0,204.3L84.3,201.1L89.6,198.5L94.6,199.5L94.2,200.3L94.7,199.5L100.0,200.4L98.8,200.1L96.0,194.9L101.8,192.4L102.5,193.7L101.1,196.3L102.0,197.9L103.0,197.8L101.3,196.3L102.6,193.8L104.2,194.1L104.4,196.0L109.4,199.1L110.8,201.6L110.3,203.3L111.5,203.0L110.8,200.5L112.3,199.4L113.8,201.7L112.4,202.7L112.6,203.9L115.9,204.7L116.9,207.0L119.1,207.2L124.3,204.6L125.8,207.3L128.1,206.2L131.2,210.8L136.2,212.2L143.3,210.7L148.8,207.7L150.8,208.3L154.9,206.9L159.9,203.7L162.9,205.6L167.4,205.9L169.9,203.0L172.7,203.4L173.5,201.8L181.4,203.2L187.0,202.2L191.4,199.5L196.1,204.9L195.1,208.3L197.6,213.2L196.3,208.7L199.0,212.6L198.6,214.8L197.0,214.2L198.3,218.1L201.4,217.1L203.8,225.0L207.5,223.8L208.2,225.8L204.5,227.0L206.1,232.4L211.5,230.8L212.2,232.9L203.3,235.7L202.5,236.9L203.3,237.9L210.8,240.8L211.3,243.5L210.9,240.0L213.6,239.5L214.1,242.3L212.0,242.8L214.3,242.4L214.3,240.1L217.0,242.4L220.7,237.3L218.6,235.3L217.5,237.5L216.2,236.2L217.9,234.9L215.7,233.6L217.5,233.5L218.5,231.9L224.5,236.3L224.1,237.5L225.2,236.9L225.7,241.8L228.8,241.0L229.2,242.0L229.2,248.4L227.3,251.1L225.2,250.1L225.4,254.1L234.2,253.3L233.3,253.0 M113.3,332.4L112.0,332.4L112.8,330.8L111.6,327.9L109.2,327.2L106.3,330.5L105.8,333.2L111.2,337.4L114.0,335.6L114.5,333.1L113.3,332.4 M5.7,316.0L3.4,316.0L5.0,317.7L5.7,316.0 M80.6,318.0L80.6,318.0 M104.5,228.0L106.3,223.4L104.4,228.1 M110.6,205.0L111.6,204.6L110.9,203.8L109.7,204.7L110.6,205.0 M25.2,282.6L22.7,285.7L27.3,288.7L23.6,287.4L21.0,289.6L21.9,293.6L14.6,296.4L15.6,304.6L13.1,306.1L11.1,302.2L8.8,302.4L6.2,308.0L6.8,314.6L9.5,317.2L8.0,319.9L8.2,322.6L13.0,325.9L10.2,331.4L12.4,332.1L12.1,331.2 M13.9,98.8L15.0,98.2L14.8,94.0L11.2,91.5L9.2,91.5L6.9,88.3L6.1,88.8L5.4,90.4L6.5,93.3L13.9,98.8 M3.0,69.8L6.7,66.6L1.6,65.4L2.9,69.9 M61.7,344.7L63.0,344.0L62.0,343.9L62.1,342.4L59.2,340.8L57.2,341.4L53.0,337.9L52.4,344.5L56.4,342.3L57.6,342.8L57.9,345.2L59.0,344.1L60.2,345.6L60.8,343.5L62.4,344.9 M36.2,200.9L37.8,198.5L36.8,197.3L38.3,193.9L33.2,191.9L32.8,193.7L36.2,195.9L35.6,200.9 M45.3,249.0L46.3,251.3L45.3,249.0 M253.3,243.1L254.7,245.1L253.3,243.1 M254.7,246.3L257.9,244.7L254.7,246.3 M270.8,249.2L269.2,249.8L270.8,249.2 M164.5,216.9L165.3,216.1L164.5,216.9 M196.6,220.0L192.7,206.2L187.8,205.7L184.8,207.4L179.9,206.5L172.8,209.9L173.9,211.1L173.6,214.3L176.1,215.3L176.0,217.0L177.1,217.3L176.6,220.2L177.7,221.7L177.7,220.4L181.6,222.2L179.7,224.0L182.6,224.9L180.0,230.5L183.3,234.9L184.3,233.2L190.3,232.4L193.1,233.3L193.4,234.5L193.2,233.3L195.7,233.6L194.7,232.2L197.4,233.0L199.1,231.3L199.8,230.4L196.6,220.0 M295.5,209.7L296.1,210.2L295.5,209.7 M294.7,209.2L294.7,209.2 M334.4,251.4L334.3,250.2L334.9,252.6L334.8,251.7 M226.3,249.1L225.3,242.8L226.3,249.1 M41.6,223.0L42.4,222.3L41.6,223.0 M171.9,266.9L173.5,266.8L173.4,263.4L169.4,265.6L169.8,267.1L171.7,267.1 M109.8,206.2L109.8,206.2 M200.8,274.9L200.8,274.9 M256.3,241.3L256.3,241.3 M319.9,297.8L319.9,297.8 M336.9,190.0L336.9,190.0 M339.4,187.5L337.5,188.1L337.3,190.5L339.4,187.5 M18.9,289.5L19.4,292.2L19.1,288.8 M393.7,156.9L393.0,156.1L395.0,155.3L395.2,152.9L397.0,151.4L393.8,152.1L392.4,149.3L390.7,150.6L390.7,147.5L389.3,149.3L385.2,149.8L383.7,151.2L379.8,149.3L376.5,150.7L375.0,149.8L372.9,143.4L375.2,141.2L375.2,136.8L369.1,132.7L369.7,139.2L367.3,139.0L366.4,141.0L364.3,140.4L362.8,141.7L364.2,142.7L363.7,144.7L366.0,144.0L364.8,146.4L365.6,148.7L363.8,157.2L365.7,159.7L363.8,159.8L365.6,161.8L361.3,162.3L359.4,160.9L359.4,159.7L362.1,158.5L358.7,148.9L356.4,150.7L355.7,154.9L353.0,154.8L353.4,156.6L355.5,157.1L350.5,157.6L352.1,155.4L352.6,151.8L350.2,149.1L349.3,149.6L349.4,148.4L350.8,147.4L353.6,148.1L355.5,145.2L355.2,143.0L353.0,142.0L352.9,131.5L357.6,133.0L359.1,132.2L359.4,130.3L355.7,119.2L352.7,122.3L354.0,124.6L353.1,128.0L351.7,128.6L352.3,131.0L349.7,131.8L348.7,130.4L346.0,132.2L345.3,131.2L346.8,125.8L348.8,125.9L348.4,123.5L347.5,122.7L346.2,124.9L343.8,124.5L341.5,117.8L340.7,120.8L337.9,120.5L335.3,124.4L332.5,125.1L330.4,127.6L329.3,131.3L328.0,131.1L328.9,131.2L329.4,134.3L328.7,136.9L326.2,137.4L326.2,135.9L323.9,136.5L321.0,134.5L320.8,140.8L319.6,141.4L318.9,139.0L316.9,138.1L310.9,144.7L311.5,146.2L311.7,145.1L315.3,145.7L313.5,149.0L314.9,153.7L316.7,156.3L319.5,157.2L318.0,159.3L309.9,164.2L310.1,171.7L307.0,166.6L308.5,166.9L306.8,167.0L303.9,162.7L306.0,161.7L306.7,157.5L304.6,153.0L297.3,154.1L296.3,155.3L294.2,152.5L289.0,155.4L287.7,153.7L290.4,152.3L290.3,151.2L283.5,150.7L282.7,151.8L284.1,153.1L283.7,155.1L280.5,158.1L276.7,157.6L275.0,159.8L270.7,172.7L250.0,195.6L269.1,172.5L266.6,170.3L267.7,167.4L266.9,166.0L267.6,160.3L266.3,158.2L254.5,149.3L248.9,148.9L242.0,144.6L243.0,145.3 M234.2,253.3L232.6,254.6L234.4,254.3L235.0,257.0L232.6,258.0L235.1,257.5L235.6,258.5L234.8,258.6L235.9,259.0L239.5,258.7L244.0,254.0L245.0,254.0L244.7,255.7L245.3,254.0L249.8,253.5L252.3,251.6L252.8,247.4L251.4,246.2L251.5,242.8L254.3,238.1L268.2,251.2L269.1,250.1L267.7,247.6L257.1,238.4L257.6,237.0L264.7,243.8L266.4,242.0L277.4,254.8L281.7,254.7L282.2,256.0L279.8,257.2L282.8,261.1L282.4,260.4L283.9,260.0L282.3,262.6L286.7,264.6L295.1,255.7L296.1,253.0L301.2,252.4L302.5,249.8L302.0,246.9L303.5,249.4L301.6,255.4L303.4,256.8L303.5,259.8L306.4,259.8L301.9,272.0L303.5,273.2L305.2,272.5L305.8,274.0L304.3,274.9L308.3,281.7L310.9,281.6L314.2,277.2L314.1,275.0L319.0,275.7L320.3,278.4L323.5,279.7L324.4,282.8L326.0,283.5L327.3,282.0L326.9,278.9L330.4,280.3L329.9,279.5L331.2,279.4L331.6,277.9L330.8,276.4L328.3,277.7L326.9,276.7L327.8,273.7L326.9,269.6L328.7,269.0L326.5,268.3L323.4,271.6L323.3,273.7L321.9,273.7L321.7,271.9L324.1,269.5L318.6,268.4L318.4,266.0L320.1,264.0L318.7,264.2L318.3,263.1L320.7,260.3L322.5,260.5L322.8,262.5L327.9,263.2L330.7,259.7L333.6,259.0L333.9,256.5L333.0,256.1L335.0,254.9L333.9,251.7L329.3,247.8L329.9,247.0L328.5,245.7L325.8,245.9L322.8,248.4L323.5,250.3L321.4,250.4L321.7,248.5L319.9,248.0L321.4,244.2L319.7,243.0L319.4,237.8L317.8,238.7L314.4,237.5L311.6,239.0L310.9,237.4L307.0,236.1L307.5,231.7L305.4,225.2L302.9,223.5L304.5,215.2L302.0,216.0L302.8,214.0L299.6,212.9L299.1,210.9L298.7,212.2L295.8,211.8L298.6,212.2L298.4,213.1L295.8,213.8L295.3,212.7L293.3,214.5L292.2,213.0L293.1,213.7L293.2,212.5L296.9,210.7L293.8,211.1L294.2,209.0L298.2,210.0L296.9,207.5L298.8,206.6L299.6,204.7L298.8,202.1L300.8,202.9L301.6,199.5L304.3,200.9L305.8,204.4L304.9,207.7L302.6,208.8L302.2,211.4L305.4,210.7L307.5,208.5L306.8,212.0L308.1,215.2L309.4,215.5L309.7,213.2L311.2,212.4L310.5,210.4L311.8,209.3L307.6,205.2L306.9,201.0L309.3,197.0L308.9,195.3L305.6,195.1L311.0,190.4L309.9,187.9L311.0,183.0L312.3,182.5L314.3,184.3 M315.2,183.1L317.1,181.4L320.4,186.7L322.6,187.4L324.3,185.5L324.3,187.1L326.4,189.0L325.7,190.4L328.3,189.5L327.6,187.4L329.9,190.5L331.0,189.1L333.6,189.9L332.2,187.2L333.6,186.1L333.7,184.1L341.2,183.2L341.6,180.9L341.0,184.8L339.9,183.9L338.5,185.0L339.0,187.1L340.5,187.1L339.1,191.8L340.0,192.4L342.8,190.5L342.4,192.6L344.9,194.5L349.3,196.1L351.2,194.6L350.4,200.8L352.6,202.3L349.7,202.6L348.3,206.1L350.8,209.2L352.5,208.9L355.0,211.0L355.7,213.0L353.0,212.7L356.6,218.3L358.3,215.8L360.2,216.5L361.0,213.2L362.6,212.4L364.9,217.6L362.1,217.7L364.4,222.3L364.8,226.4L366.2,227.1L369.3,222.7L367.7,219.6L367.9,215.1L369.4,214.6L371.3,216.7L373.6,216.5L373.0,214.7L371.0,214.0L371.7,212.5L375.9,214.8L376.4,213.1L378.0,213.6L377.4,212.0L379.1,211.5L378.9,210.1L380.7,210.3L378.2,208.8L380.1,206.0L382.2,206.2L383.0,204.5L379.1,201.4L379.3,198.6L380.9,197.5L382.6,198.3L383.8,196.7L386.9,204.0L389.0,204.8L388.7,203.7L389.7,203.8L388.8,202.6L390.2,202.9L386.7,195.9L390.3,195.6L389.0,192.0L389.6,187.6L386.9,185.6L385.3,186.5L383.2,184.8L382.0,181.4L379.8,181.1L379.8,179.8L377.3,180.8L375.3,178.4L377.9,177.9L377.9,176.2L379.0,176.1L378.8,172.4L380.2,171.1L381.8,171.6L381.4,168.3L386.3,163.1L390.8,163.2L392.6,165.1L392.5,166.9L396.0,169.9L400.0,169.0L398.6,163.9L394.0,161.1L394.9,158.7L393.1,156.3 M373.5,280.2L373.5,280.2 M375.1,279.1L375.1,279.1 M363.4,283.8L363.4,283.8 M363.2,282.4L362.5,283.1 M363.1,285.2L363.1,285.2 M307.8,349.3L307.8,349.3 M305.3,345.0L305.3,345.0 M319.3,337.4L317.8,336.3L316.9,338.6L315.0,338.9L315.6,342.7L318.7,343.0L320.0,336.3L319.3,337.4 M302.9,273.0L303.0,272.9 M217.5,298.1L217.5,297.9 M339.6,253.1L339.1,253.5 M312.9,296.7L312.9,296.7 M298.8,325.0L298.9,323.8L297.6,324.9L299.3,324.9L299.0,325.9L298.9,325.0 M317.9,134.1L317.9,134.1 M173.2,205.4L173.2,205.4 M276.2,79.0L276.2,79.0 M373.9,233.5L374.9,234.0L373.9,233.5L373.6,234.6L374.8,234.6L373.0,234.8L373.2,233.9 M374.9,227.9L376.6,232.4L380.7,232.8L379.0,230.8L377.3,230.7L375.9,227.8L374.9,227.9L375.5,227.1 M376.6,228.8L376.3,228.5 M378.5,224.1L379.3,224.6L378.5,224.1 M364.0,236.8L364.0,236.8 M366.3,234.7L366.5,234.4 M312.4,192.1L312.5,193.7L314.5,194.5L314.8,193.4L312.4,192.1 M309.2,195.2L310.0,194.4L309.2,195.2 M65.1,343.5L65.9,345.6L66.7,344.5L65.1,343.5 M49.0,349.6L47.0,350.0L49.8,350.4L50.7,349.6L49.7,348.6L49.0,349.6L49.9,350.1 M53.2,348.5L53.8,349.1L53.2,348.5 M55.9,354.5L53.0,356.9L50.0,356.3L48.2,357.9L48.2,359.6L50.8,361.6L52.7,359.4L59.4,359.0L58.6,356.5L57.5,356.4L57.6,354.1L60.6,352.8L56.0,351.3L54.7,353.3L55.9,354.5 M64.2,362.0L64.2,363.5L65.4,362.4L64.2,362.0 M55.6,345.2L55.6,345.2 M51.4,347.9L52.3,349.2L51.4,347.9 M60.5,357.1L59.7,356.6L60.5,357.1 M66.3,345.4L66.3,345.4 M66.2,346.5L66.2,346.5 M65.4,346.0L66.1,346.5L65.4,346.0 M314.2,189.2L314.0,189.5 M31.3,211.3L30.6,210.8 M43.4,219.3L39.3,216.9L38.1,217.4L40.4,218.7L41.7,222.0L43.4,219.3 M39.2,213.7L39.2,215.4L40.6,213.9L39.2,213.7 M342.8,203.1L344.2,203.7L343.5,202.3 M341.3,196.2L340.9,199.0L342.5,200.6L343.6,197.9L344.5,198.5L345.3,204.2L346.5,204.3L347.1,198.4L343.8,196.2L341.3,196.2 M339.4,196.3L339.4,196.3 M318.3,78.7L318.3,78.7 M22.2,283.6L20.9,282.7L17.6,284.0L14.8,286.7L15.9,289.2L18.7,288.1L18.7,287.0L22.8,287.9L22.2,283.6 M380.8,209.9L381.9,210.4L380.4,209.2L380.8,209.9 M303.0,303.2L303.0,303.2 M327.6,342.0L327.6,341.7 M143.7,295.6L143.7,295.6 M273.7,70.0L273.7,70.0 M9.8,266.4L7.4,266.7L11.3,267.9L9.8,266.4 M243.9,145.9L243.9,145.9 M158.8,231.3L158.6,231.7 M320.2,130.3L320.2,130.3 M315.6,83.6L315.6,83.6 M15.1,287.7L15.1,287.7 M346.5,215.3L346.5,215.3 M387.5,174.0L386.7,174.0 M338.6,250.7L338.3,250.6 M333.4,247.8L332.9,247.8 M333.6,246.5L333.6,246.5 M333.8,249.7L333.8,250.4 M332.6,250.1L332.6,250.1 M316.9,183.0L317.2,184.3L317.0,183.2 M317.6,184.2L317.6,184.2 M337.6,186.7L338.3,186.7 M368.7,220.8L368.7,220.8 M375.3,246.7L375.1,246.6 M373.9,248.3L373.9,248.3 M195.8,210.7L195.8,210.7 M195.0,210.4L195.0,210.4 M194.3,210.1L194.3,210.1 M334.3,186.7L334.1,186.4 M338.7,196.7L338.7,196.7 M393.2,142.3L392.4,141.3L392.0,142.3L393.2,142.3 M36.0,197.2L36.0,197.2 M41.0,214.5L41.0,214.5 M42.3,221.7L41.5,221.9 M38.6,218.2L38.6,218.2 M162.8,214.4L162.8,214.4 M11.5,104.0L5.8,98.7L3.3,101.4L9.0,106.7L11.5,104.0 M362.8,284.4L362.8,284.4 M367.7,271.5L367.7,271.5 M365.4,116.2L365.4,116.2 M297.2,143.2L297.2,143.2 M328.1,130.9L328.2,130.9 M328.8,133.6L328.8,133.6 M58.9,118.6L57.0,120.2L58.7,119.7L58.7,117.8L58.9,118.6 M194.1,208.5L194.1,208.4 M167.4,205.7L166.9,205.8 M52.4,347.9L52.3,347.7 M47.5,349.4L47.5,349.4 M67.1,343.9L67.0,343.8 M105.2,329.6L105.2,329.6 M104.5,329.4L104.3,329.8 M135.4,331.3L135.4,331.3 M104.4,316.2L104.5,316.3 M140.6,288.1L140.6,288.1 M133.5,260.8L133.5,260.8 M136.3,257.7L136.3,257.7 M143.2,251.3L141.8,251.5L143.1,250.9 M160.8,222.9L161.6,222.7 M120.2,206.9L120.0,206.6 M134.0,268.6L134.1,268.6 M247.8,148.3L247.8,148.3 M368.6,105.9L368.6,105.9 M370.8,101.0L370.5,101.3 M369.8,102.2L369.8,102.2 M371.6,99.7L371.9,99.4 M320.2,200.2L320.8,197.8L323.1,197.0L321.6,199.2L323.6,203.6L325.0,204.2L323.7,206.5L325.1,212.1L324.1,213.9L323.0,212.9L323.7,210.8L321.6,210.4L320.4,205.4L318.5,204.0L316.8,206.3L318.5,205.8L317.6,202.7L320.2,200.2 M315.9,206.9L316.3,206.4 M332.8,195.9L331.3,198.8L330.9,197.3L329.9,198.7L330.2,200.8L328.2,201.1L328.6,203.3L330.5,202.7L329.5,204.6L332.5,208.8L330.4,208.1L331.4,210.5L329.3,212.2L328.9,214.7L330.6,218.1L333.9,220.9L335.0,221.2L336.7,219.0L338.2,221.1L342.5,222.1L343.8,220.6L342.8,218.2L344.8,217.3L344.2,215.7L345.5,215.3L344.7,213.1L345.9,211.4L340.8,208.3L341.1,210.1L339.3,207.5L340.2,207.8L339.9,205.1L341.1,205.3L340.1,201.4L338.2,199.8L339.0,195.2L337.2,194.8L335.8,197.6L335.9,193.5L333.5,194.0L331.2,192.9L333.4,194.1L332.8,195.9 M371.8,110.6L371.8,110.6 M326.4,205.2L326.4,205.2 M343.6,200.9L343.7,202.0L343.6,200.9 M376.4,244.4L376.4,244.4 M377.0,244.8L377.0,244.8 M371.4,247.9L371.4,247.9 M325.6,205.1L325.4,204.8 M328.1,197.4L326.1,197.2L327.4,199.1L328.1,197.4 M340.1,197.3L340.1,197.3 M340.2,195.3L340.2,195.3 M347.3,235.8L347.3,235.8 M324.3,213.7L324.3,213.7 M323.1,213.4L323.1,213.4 M324.7,210.4L324.7,210.4 M376.3,214.8L376.3,214.8 M376.5,213.2L376.6,213.1 M390.0,191.2L389.7,190.6 M337.0,79.7L337.0,79.7 M342.8,222.0L342.8,222.0 M381.0,198.0L381.2,197.9 M375.9,230.2L375.9,230.2 M373.1,239.1L373.1,239.1 M374.9,241.9L374.9,241.9 M373.3,248.7L373.3,248.7 M345.4,234.3L344.7,234.5 M312.7,336.0L312.4,335.8 M336.3,194.0L336.3,194.0 M64.1,363.8L64.1,363.8 M323.1,198.1L324.1,198.5L323.1,198.1 M103.3,233.1L103.3,233.1 M212.7,310.8L212.7,310.8 M306.8,194.2L307.0,194.1 M264.8,142.1L264.6,142.2 M314.0,296.4L314.0,296.3 M106.9,197.2L106.9,197.2 M269.2,136.4L271.0,136.3L268.5,135.3L269.2,136.4 M165.4,237.3L165.4,237.3 M320.5,95.6L320.5,95.6 M322.8,92.6L322.8,92.6 M328.5,69.8L328.5,69.8 M288.6,262.2L288.6,262.2 M292.2,258.7L292.2,258.7 M146.0,295.2L148.4,298.0L150.8,294.6L148.7,290.9L149.3,285.9L137.5,284.7L136.4,286.3L137.3,288.1L140.6,287.9L142.4,291.6L144.9,291.7L146.0,295.2 M82.9,98.0L82.4,99.0L82.9,98.0 M309.5,214.9L309.5,214.9 M366.5,124.5L366.5,124.5 M346.1,233.3L346.1,233.3 M10.6,330.0L10.6,330.0 M38.8,215.3L38.8,215.3 M6.9,88.2L6.9,88.2 M121.5,315.5L121.5,315.5 M124.4,314.7L124.0,314.4 M129.4,311.1L128.9,310.6 M131.4,309.0L130.5,309.0 M131.3,306.7L131.3,306.7 M210.9,343.2L210.9,343.2 M215.6,331.2L215.6,331.2 M218.0,331.1L218.0,331.1 M218.1,330.2L218.1,330.2 M158.6,261.2L158.6,261.2 M157.9,261.6L157.6,261.7 M170.6,267.1L170.6,267.1 M77.0,308.9L77.0,308.9 M72.7,309.3L72.7,309.3 M305.8,127.9L304.1,128.8L303.8,126.9L305.2,126.3L305.7,127.3 M66.1,312.8L66.2,311.8 M61.1,321.7L61.1,321.7 M60.2,321.8L60.2,321.8 M40.2,313.9L40.2,313.2 M35.6,316.2L35.6,316.2 M27.8,324.2L27.8,324.2 M147.7,285.1L147.7,285.1 M153.3,280.4L153.3,280.4 M150.8,283.2L150.8,283.1 M150.5,284.4L150.8,285.1 M154.5,284.9L154.5,284.9 M155.7,284.4L156.0,284.0 M156.7,280.5L156.7,280.5 M155.8,279.9L155.8,279.9 M153.2,279.2L153.2,279.2 M203.9,308.1L203.9,308.1 M190.7,303.2L191.3,303.4 M190.5,302.4L190.5,302.4 M192.3,307.8L192.3,307.8 M201.8,321.3L201.8,321.3 M315.3,342.4L315.3,342.4 M271.4,325.3L271.3,325.4 M245.8,317.9L245.9,317.8 M245.5,315.5L245.5,315.5 M140.5,262.4L140.5,262.4 M139.0,262.4L139.0,262.4 M138.9,253.4L138.9,253.4 M136.2,276.4L136.2,276.4 M135.2,275.9L134.9,276.6 M134.5,279.4L134.4,279.5 M133.7,279.3L133.7,279.3 M131.2,279.4L132.4,279.3 M139.1,317.8L139.1,318.0 M143.7,322.2L143.7,322.2 M150.4,324.7L150.4,324.7 M146.8,324.8L146.8,324.8 M325.7,291.6L325.7,291.6 M324.0,293.7L323.9,293.8 M325.3,283.2L325.3,283.2 M319.8,299.6L319.8,299.6 M317.7,300.3L317.7,300.3 M373.7,288.2L373.7,288.2 M379.2,225.6L379.2,225.6 M244.4,302.3L244.4,302.3 M248.0,297.1L248.0,297.1 M234.9,304.8L234.9,304.8 M263.6,316.0L263.6,316.0 M385.9,164.5L385.7,164.3 M388.0,163.6L388.0,163.6 M120.6,317.7L120.6,317.7 M121.3,316.7L121.3,316.7 M118.2,317.8L118.2,317.8 M57.7,181.0L57.6,181.2 M50.5,170.5L50.9,170.2 M61.1,160.9L61.1,160.9 M319.7,346.4L319.7,346.4 M358.3,280.9L358.3,280.9 M190.7,313.1L190.7,313.1 M199.9,297.9L199.9,297.9 M341.9,200.2L341.8,201.8 M313.2,295.9L313.2,295.9 M88.2,305.6L88.2,305.6 M0.0,303.5L0.0,303.5 M24.0,272.0L24.0,272.0 M25.1,272.6L25.1,272.6 M23.0,272.0L23.0,272.0 M22.1,271.3L22.1,271.3 M126.8,279.2L125.4,278.7 M121.9,281.9L121.9,281.9 M121.0,275.2L120.9,275.2 M307.7,80.5L307.7,80.5 M307.4,76.1L307.4,76.1 M349.4,115.9L349.4,115.9 M335.7,99.8L335.7,99.6 M328.8,99.3L328.8,99.3 M312.8,93.1L312.8,93.1 M301.7,66.9L301.7,66.9 M300.5,66.9L300.5,66.9 M20.7,289.6L20.7,289.6 M295.8,287.7L295.8,287.7 M279.1,259.3L279.1,259.3 M193.5,302.1L193.4,302.0 M203.2,300.0L203.5,300.4 M117.2,298.0L117.2,298.0 M244.1,265.3L244.1,265.3 M228.0,321.1L228.0,321.1 M229.9,300.0L229.9,300.0 M205.9,281.8L205.9,281.8 M91.2,200.7L91.2,200.7 M83.0,93.1L83.0,93.1 M110.6,85.8L110.6,85.8 M105.6,197.0L105.6,197.0 M197.2,217.5L197.1,217.1 M368.5,271.8L368.5,271.8 M304.3,62.7L304.3,62.7 M362.0,274.6L362.0,274.6 M157.3,227.6L157.2,227.7 M35.4,198.7L35.0,199.5 M37.1,199.3L37.1,199.3 M395.4,153.1L395.3,152.9 M389.4,192.1L389.3,191.5 M327.0,246.0L327.0,246.0 M294.3,292.5L294.2,292.5 M296.5,285.9L296.3,285.8 M134.6,260.0L134.9,257.5L137.2,259.9L135.3,260.1 M320.3,296.8L320.3,296.8 M280.4,301.9L280.4,301.9 M271.0,307.2L271.0,307.2 M271.7,319.7L271.7,319.7 M271.4,320.3L271.3,321.3 M270.7,323.4L270.7,323.4 M273.4,331.5L273.5,331.4 M272.5,317.0L271.5,316.7 M270.0,308.1L269.8,308.3 M272.9,305.2L272.6,305.5 M318.6,84.6L318.6,84.6 M321.0,79.8L321.0,79.8 M310.3,94.1L310.3,94.1 M359.2,222.4L359.2,222.4 M303.9,65.2L303.9,65.2 M358.0,230.2L358.0,230.2 M344.1,206.2L344.1,206.2 M323.4,193.3L323.4,193.3 M378.8,211.0L378.8,211.0 M264.2,82.4L265.0,82.8L264.2,82.4 M283.3,314.4L283.3,314.4 M295.9,212.9L296.0,212.2 M321.8,78.6L322.1,78.3 M53.5,355.8L53.5,355.8 M104.9,224.8L104.9,224.8 M135.3,246.6L135.3,246.6 M50.8,260.2L50.8,260.2 M118.5,275.2L118.5,275.2 M122.2,276.5L122.8,276.8 M133.2,271.7L133.8,272.4 M313.8,191.8L313.8,191.8 M310.7,191.2L310.7,191.2 M264.6,329.2L264.6,329.2 M264.8,331.6L264.7,331.6 M265.9,332.5L265.3,332.4 M281.1,301.3L281.1,301.3 M331.3,218.8L331.3,218.8 M393.8,155.5L393.8,155.5 M296.0,320.5L296.0,320.5 M124.9,205.3L125.3,205.5 M286.0,315.3L286.1,315.5 M341.4,89.7L341.3,89.7 M315.2,84.2L314.9,84.3 M331.2,208.2L331.2,208.2 M332.9,193.1L332.9,193.1 M157.3,238.0L157.3,238.0 M138.9,244.8L138.6,243.9 M157.4,232.1L157.4,232.1 M289.1,152.9L289.0,152.8 M330.6,196.5L330.6,196.5 M333.2,190.8L333.2,190.8 M178.0,207.0L178.7,206.9 M93.2,301.9L92.7,302.1 M135.3,101.4L133.9,101.0L135.3,101.4 M374.4,241.3L374.4,241.3 M137.2,288.1L137.1,287.9 M162.3,275.2L162.3,275.2 M132.4,331.9L132.4,331.9 M132.6,330.7L132.6,330.7 M136.9,312.5L136.3,312.4 M150.0,287.9L149.6,287.7 M149.4,268.2L149.4,268.2 M173.6,264.4L173.6,264.4 M206.7,324.5L206.3,324.3 M140.2,261.7L141.9,261.0L140.2,261.7 M151.8,266.2L151.8,266.2 M196.2,218.7L196.3,217.3 M324.8,213.1L324.8,213.1 M195.2,208.2L195.2,208.2 M296.2,306.6L298.9,305.9L296.2,306.6 M295.6,324.1L295.5,324.5 M299.7,322.4L299.7,322.4 M118.6,111.0L118.7,111.0 M363.3,286.5L363.3,286.5 M373.3,227.6L373.3,227.6 M317.3,299.0L317.2,299.0 M136.4,245.8L136.4,245.8 M242.7,143.8L242.7,143.8 M275.1,147.6L275.1,147.6 M268.2,143.1L268.2,143.1 M245.1,142.4L245.1,142.4 M244.4,141.7L243.9,141.3 M264.1,131.7L264.1,131.7 M272.0,131.1L272.0,131.1 M267.4,124.4L267.4,124.4 M256.7,313.1L256.7,313.1 M255.6,312.8L255.6,312.8 M256.8,321.1L256.8,321.1 M194.1,305.2L194.1,305.2 M304.2,77.1L304.3,77.4 M225.2,301.7L225.2,301.7 M106.7,338.1L110.8,337.8L109.0,335.7L106.6,337.9L104.6,335.9L106.7,338.1 M26.9,280.1L26.7,280.3 M65.8,261.9L65.8,262.0 M317.8,203.0L317.7,203.3 M365.1,236.2L365.1,236.2 M47.4,317.4L47.4,317.4 M318.0,159.3L317.4,159.5 M123.9,303.5L123.3,303.8 M129.6,305.2L129.1,305.6 M50.8,320.5L50.8,320.5 M374.5,245.8L374.5,245.8 M330.2,338.8L331.1,338.5 M330.6,339.7L330.5,340.2 M54.0,359.7L54.0,359.7 M388.5,196.2L388.5,196.2 M10.6,324.6L10.7,324.6 M6.8,314.6L7.0,315.1 M15.1,296.0L14.7,296.3 M392.1,165.9L392.1,166.1 M384.9,164.3L384.9,164.3 M394.0,158.1L394.0,158.1 M114.6,315.9L114.6,315.8 M295.8,66.1L296.1,64.6L295.6,66.1 M297.5,72.1L297.6,72.0 M296.1,73.6L296.5,73.0 M341.6,180.9L341.8,181.3 M327.7,187.4L327.7,187.4 M313.0,183.6L316.4,181.3L317.3,182.0 M310.5,184.5L310.8,184.1 M309.1,170.2L308.9,170.1 M304.6,164.5L304.5,164.0 M308.5,168.6L308.5,168.6 M307.1,167.3L307.1,167.3 M308.2,158.9L307.8,158.5 M293.2,214.4L292.9,214.0 M361.5,213.1L362.3,214.0L361.7,212.8 M211.6,335.6L211.9,335.4 M13.6,305.7L13.2,305.7 M389.1,163.8L389.1,163.7 M242.1,296.7L242.1,296.7 M242.0,144.6L242.9,144.4L241.6,142.8L244.5,139.2L252.2,140.3L255.6,138.5L255.9,135.5 M371.9,216.8L372.2,216.5 M148.7,259.3L148.7,259.3 M294.8,152.8L294.6,152.5 M296.9,154.5L296.6,155.1 M301.9,153.0L301.5,153.1 M110.7,318.5L110.7,318.3 M12.5,332.2L12.5,332.2 M295.5,254.2L296.0,255.8L296.0,253.8 M240.7,266.4L240.5,266.4 M197.9,216.9L197.9,216.9 M270.1,248.6L271.1,247.9L270.1,248.6 M87.2,121.3L87.2,121.3 M245.7,147.0L245.6,146.9 M247.1,147.9L246.8,147.8 M327.6,275.1L329.7,276.3L327.9,274.7 M329.2,276.5L329.7,276.3 M280.0,127.6L280.7,127.6 M132.5,305.9L132.5,305.9" fill="none" stroke="currentColor" stroke-width="0.6" opacity="0.38" stroke-linecap="round" stroke-linejoin="round"/>
</svg>
