<svg xmlns="http://www.w3.org/2000/svg" viewBox="0 0 400 400" width="400" height="400">
  <path d="M0.0,89.3L0.8,87.2L6.2,85.7L5.3,84.3L6.9,83.7L4.9,80.7L4.9,78.1L8.1,75.8L9.8,70.8L11.7,70.7L14.6,68.0L7.2,65.3L5.8,63.0L6.3,60.6L2.3,59.4L3.0,56.2L2.0,51.2L0.7,50.0L1.8,48.9L1.4,47.3L10.3,45.8L10.9,42.1L12.6,40.8L11.3,36.9L15.1,35.4L16.5,33.4L19.6,33.3L25.0,37.5L26.8,37.1L30.7,39.0L37.7,38.7L37.2,40.0L39.0,43.1L37.7,48.2L39.7,48.9L40.9,52.3L44.1,54.0L46.8,57.5L45.2,58.1L45.4,59.1L46.9,60.1L46.5,62.0L49.8,64.8L49.5,67.8L51.2,69.8L50.4,73.4L51.9,73.7L52.2,76.4L55.6,80.0L65.9,83.8L68.6,90.4L72.6,89.4L78.6,91.9L79.9,94.1L84.0,95.2L85.1,96.9L87.3,90.2L86.2,88.4L87.1,87.1L89.4,87.8L90.6,83.2L93.2,87.5L96.1,88.2L95.7,89.6L98.7,91.2L99.6,97.3L97.8,99.3L99.3,100.9L102.3,102.0L104.0,96.2L106.7,97.3L109.0,95.6L108.2,98.2L109.9,96.9L114.1,103.5L118.4,105.5L118.5,101.3L120.5,101.3L119.4,99.0L122.2,99.5L122.5,100.6L125.8,100.6L128.0,102.2L133.1,98.8L134.4,99.2L134.7,100.8L138.3,97.1L138.9,92.6L134.8,89.0L135.0,85.7L137.0,85.8L137.0,83.5L135.6,82.8L136.5,80.8L134.8,75.8L137.0,73.7L141.0,74.0L144.1,78.8L144.8,75.6L147.8,75.5L153.0,81.0L156.8,73.9L153.7,71.6L154.1,69.0L155.3,66.7L158.1,65.9L157.9,62.0L160.1,61.5L160.6,59.5L162.6,61.4L162.7,64.5L164.3,66.3L162.1,68.8L161.7,71.9L157.8,74.0L160.4,77.1L159.9,80.2L161.3,80.8L163.8,77.3L165.4,76.7L169.0,77.0L170.0,72.5L173.6,75.6L172.8,71.1L175.7,67.2L179.2,68.5L182.9,66.0L182.4,65.1L183.3,65.9L182.0,62.6L183.2,62.0L178.3,59.1L177.4,56.6L178.3,54.0L176.4,54.5L177.7,52.7L174.6,51.4L175.7,49.4L171.1,43.6L173.9,44.2L177.1,42.6L177.3,43.8L180.1,43.7L181.8,38.7L187.7,38.0L189.6,39.3L189.9,37.6L187.8,35.7L198.3,28.9L200.1,29.8L201.2,34.0L206.0,34.9L206.3,37.3L208.3,38.7L206.2,40.4L207.6,42.1L206.1,44.4L208.5,46.6L207.6,50.8L211.9,50.8L211.8,52.1L214.1,53.7L217.3,53.5L218.9,50.6L220.4,50.6L221.5,53.6L220.5,56.0L221.1,56.6L223.2,54.1L229.3,57.2L232.8,55.9L238.9,55.8L243.6,59.1L244.1,60.6L243.1,62.1L245.5,68.0L247.2,68.5L248.2,71.2L251.0,70.4L253.2,71.5L251.6,71.9L252.3,73.2L248.4,72.3L251.0,80.6L249.6,83.5L252.8,84.6L251.3,85.5L250.7,87.6L248.2,87.4L247.5,89.6L248.3,92.4L250.6,92.8L253.9,95.9L255.8,95.7L260.5,99.5L262.8,99.1L264.2,100.7L267.2,99.6L269.2,102.1L274.3,100.1L278.4,102.2L280.3,101.3L281.2,99.4L283.9,100.0L286.3,97.5L289.5,96.5L286.8,90.4L288.7,88.1L291.1,89.0L292.2,93.8L293.5,95.3L293.2,96.6L294.7,97.9L300.0,95.1L301.2,95.9L302.7,95.1L302.8,92.7L308.0,91.7L309.4,92.5L310.5,91.0L312.4,92.7L312.6,94.1L311.2,94.8L313.0,97.1L321.6,99.2L323.5,101.7L325.1,99.7L332.7,98.4L335.1,96.4L337.0,96.5L337.1,98.1L345.0,96.8L347.1,97.7L346.9,99.0L348.1,100.1L347.7,105.3L353.0,110.1L354.4,110.5L355.0,107.4L358.2,104.8L360.2,105.0L361.0,110.0L362.2,109.6L363.5,111.5L366.2,110.2L369.0,110.8L370.3,113.8L371.8,113.4L373.9,117.7L379.9,121.6L381.3,120.2L381.1,118.7L383.0,117.8L387.1,118.3L389.1,116.0L391.6,117.9L397.6,116.4L398.6,117.3L398.5,119.3L393.6,120.2L396.5,124.5L392.9,124.6L393.5,126.1L392.1,126.9L393.6,128.3L391.4,127.7L389.7,129.0L392.7,133.4L399.6,137.8L398.6,138.9L400.0,141.7L397.1,143.6L395.8,143.2L393.9,145.7L394.4,146.7L392.6,147.0L392.6,148.2L387.3,148.9L388.5,150.6L387.9,152.8L386.0,153.9L387.0,155.9L381.2,159.3L381.6,160.5L383.3,159.9L383.7,161.2L380.8,164.9L382.4,167.8L380.6,168.5L379.9,170.2L378.4,169.9L378.5,172.7L380.3,173.3L378.8,174.9L375.1,178.2L372.0,177.2L371.9,175.2L370.3,174.1L367.7,177.3L365.3,175.8L361.9,176.2L362.5,177.4L359.9,180.2L361.0,182.7L363.2,184.2L357.9,191.6L353.2,201.3L348.4,207.3L347.6,206.9L347.1,209.1L345.6,209.6L344.0,207.4L341.7,209.9L338.9,208.9L337.1,210.2L335.1,209.9L334.1,206.1L333.0,205.9L333.2,204.4L330.7,201.4L331.7,200.0L329.0,197.9L327.2,199.0L324.7,198.2L324.6,199.5L323.6,199.6L324.3,200.5L319.7,201.1L319.5,202.7L318.4,202.1L318.7,203.3L317.9,202.8L317.7,203.6L317.3,202.2L315.4,201.4L315.1,198.3L312.8,198.1L310.1,195.5L306.9,195.6L305.6,194.2L303.5,194.8L302.6,192.9L300.6,194.5L299.8,197.8L298.8,197.7L299.5,200.2L295.7,199.6L295.4,201.3L296.9,202.3L292.4,204.2L293.1,205.0L294.6,204.4L293.7,205.8L296.2,206.8L297.8,209.4L300.0,209.6L298.3,213.9L299.6,216.7L295.2,217.4L292.6,223.6L290.4,222.7L290.3,224.4L287.2,224.3L286.8,226.5L285.3,227.8L284.7,227.1L283.6,229.4L284.9,233.7L287.2,233.4L286.6,234.8L288.6,234.9L289.1,236.2L288.3,239.3L289.6,238.6L290.3,240.6L296.3,240.7L296.8,241.7L298.9,239.9L298.0,241.0L298.6,244.8L300.2,246.6L299.3,247.2L300.3,249.2L299.8,250.4L300.4,252.5L302.2,253.8L301.8,254.7L304.6,254.7L305.8,256.2L308.4,252.8L310.6,254.0L310.7,255.9L315.1,255.2L317.1,256.5L318.4,258.2L317.8,260.4L319.0,261.4L320.4,265.6L319.9,266.6L321.4,269.0L321.0,270.8L322.6,272.1L322.5,273.3L320.8,273.1L319.4,270.8L316.0,269.4L314.9,266.9L312.8,267.1L312.0,264.9L310.1,264.5L307.8,261.8L306.7,265.0L305.1,265.4L305.6,268.0L300.3,268.7L299.6,267.7L298.0,268.8L297.7,271.0L295.6,271.7L295.1,274.9L296.3,275.2L296.8,277.9L296.2,280.1L299.4,281.7L299.7,280.3L301.4,280.2L301.1,279.1L302.7,280.3L305.1,283.1L304.0,285.9L304.6,287.6L306.9,286.9L308.3,288.4L310.2,288.3L310.0,287.4L313.4,285.9L316.4,287.2L318.5,290.0L317.8,292.1L319.5,292.5L320.7,294.4L319.7,296.4L320.9,297.2L320.3,299.2L321.2,299.9L317.1,302.3L311.3,301.7L306.6,303.7L304.7,303.2L303.5,304.6L299.4,304.4L296.2,306.4L294.9,304.2L290.4,301.8L285.9,302.9L284.3,304.6L283.1,301.0L284.6,300.1L282.0,299.8L281.6,297.1L283.5,295.2L282.9,292.8L280.2,293.0L279.3,291.8L279.7,289.9L275.0,288.7L272.5,290.1L272.3,292.0L269.8,294.1L270.5,295.0L269.3,296.2L264.8,297.4L264.1,296.7L258.1,299.1L248.2,290.9L251.0,290.6L253.6,288.1L253.9,285.8L252.1,285.7L251.9,284.6L254.1,282.9L253.5,281.7L252.1,281.8L250.8,279.1L247.9,280.0L246.4,271.4L250.4,270.1L252.9,267.3L250.9,266.3L248.7,267.8L246.4,265.7L246.0,266.8L242.0,266.8L241.0,268.2L239.7,267.2L235.7,268.3L234.5,267.0L233.1,267.3L232.3,265.6L231.8,269.0L229.8,271.4L231.5,274.0L233.1,280.3L227.3,284.7L224.5,282.1L217.9,287.7L217.3,291.1L219.3,291.4L220.2,294.1L222.0,293.7L219.8,296.3L219.3,300.9L211.9,307.5L212.4,310.2L209.8,310.2L206.9,316.0L201.4,318.2L200.0,316.4L197.7,321.0L198.7,327.7L197.3,331.9L198.1,333.0L197.9,335.3L200.8,339.7L202.8,346.5L202.6,349.4L203.9,351.2L203.0,353.5L201.5,353.7L201.3,359.1L198.1,359.4L197.7,358.3L195.9,360.7L192.6,362.2L191.6,364.5L190.2,364.7L187.6,362.9L188.7,359.5L185.9,358.4L175.0,364.4L169.5,370.4L163.2,368.5L160.3,371.1L160.4,369.6L158.9,368.4L159.4,366.4L155.2,363.2L152.9,364.0L151.3,361.7L152.3,360.4L154.0,360.6L152.6,356.4L144.7,351.3L144.6,348.8L146.9,348.7L147.6,346.1L146.6,344.9L148.7,342.1L146.9,341.5L146.7,343.8L144.3,344.1L143.1,342.2L144.7,339.6L144.2,338.6L140.0,336.8L139.9,334.8L135.3,332.1L136.4,324.9L133.0,325.2L131.9,324.1L131.1,319.1L128.1,314.1L126.9,314.7L127.2,312.0L125.3,307.9L124.2,308.2L125.0,306.0L122.9,305.5L122.2,302.7L120.0,300.8L120.4,298.4L119.0,295.8L117.3,296.1L114.2,300.4L112.7,298.7L110.0,298.2L108.1,302.6L106.3,304.0L104.9,300.5L105.7,298.3L100.7,296.8L101.5,294.8L97.8,291.4L95.4,286.7L95.9,285.2L100.5,283.9L101.4,282.5L99.9,281.0L100.9,279.5L96.7,277.7L97.4,275.4L94.6,273.7L93.0,269.4L90.1,266.9L88.8,267.1L87.9,264.7L85.1,263.4L84.7,258.3L83.3,259.7L81.3,259.6L81.0,262.6L77.9,265.0L78.3,267.3L76.6,267.7L75.5,270.3L73.3,270.5L73.1,272.7L74.2,274.2L73.4,275.1L74.6,276.5L73.0,279.8L73.8,281.1L72.8,284.2L73.3,286.6L69.9,283.5L69.2,280.7L65.2,276.4L65.5,268.7L62.7,259.6L63.7,254.1L63.1,242.3L61.3,239.7L60.8,228.9L58.7,225.0L59.4,218.5L61.4,213.9L60.2,210.1L60.6,207.7L58.3,203.6L58.1,194.6L55.6,182.5L57.6,180.9L57.5,179.3L51.2,174.0L52.0,169.7L49.5,167.4L47.3,163.0L44.7,161.5L46.0,155.5L48.0,155.6L51.0,159.1L54.9,153.8L45.4,144.8L43.1,142.0L42.8,139.5L41.7,139.5L39.1,134.8L38.1,134.8L37.5,131.8L38.7,130.8L38.8,127.5L31.1,117.7L31.0,113.1L21.0,107.1L12.7,105.1L9.2,101.6L4.7,100.0L2.6,97.7L1.1,94.0L1.4,91.0L0.0,89.3 M311.7,95.5L312.2,94.9L311.7,95.5 M314.0,199.5L314.9,199.4L314.0,199.5 M316.1,202.6L316.1,202.6 M316.8,200.9L316.2,200.8L316.8,200.9 M316.8,200.7L316.8,200.7 M318.3,202.5L318.3,202.5 M318.8,202.1L318.8,202.1" fill="none" stroke="currentColor" stroke-width="0.7" opacity="0.35" stroke-linecap="round" stroke-linejoin="round"/>
</svg>
